<svg width="25" height="25" viewBox="0 0 25 25" fill="none" xmlns="http://www.w3.org/2000/svg">
<path d="M25 15.2778V22.2222C25 22.9589 24.7073 23.6655 24.1864 24.1864C23.6655 24.7073 22.9589 25 22.2222 25H2.77778C2.04107 25 1.33453 24.7073 0.813592 24.1864C0.292658 23.6655 0 22.9589 0 22.2222V2.77778C0 2.04107 0.292658 1.33453 0.813592 0.813592C1.33453 0.292658 2.04107 0 2.77778 0H9.72222V2.77778H2.77778V22.2222H22.2222V15.2778H25Z" fill="#EFF6FF"/>
<path d="M25 5.55556H19.4444V0H16.6667V5.55556H11.1111V8.33333H16.6667V13.8889H19.4444V8.33333H25V5.55556Z" fill="#EFF6FF"/>
</svg>
