<svg width="25" height="24" viewBox="0 0 25 24" fill="none" xmlns="http://www.w3.org/2000/svg">
<path d="M19.4529 23.845C19.2503 23.8445 19.0508 23.7947 18.8716 23.7L12.5 20.3498L6.12837 23.7C5.92206 23.8081 5.68966 23.8564 5.45737 23.8394C5.22508 23.8225 5.00214 23.741 4.81368 23.6042C4.62522 23.4673 4.47875 23.2805 4.39077 23.0649C4.3028 22.8492 4.27681 22.6133 4.31576 22.3837L5.53208 15.2882L0.37677 10.2629C0.209997 10.1001 0.0920702 9.89388 0.036305 9.66757C-0.0194601 9.44126 -0.0108423 9.20386 0.0611855 8.98219C0.133213 8.76051 0.265782 8.56339 0.443923 8.41308C0.622063 8.26277 0.838679 8.16526 1.06931 8.13155L8.19349 7.09649L11.3799 0.6411C11.4947 0.44589 11.6585 0.284047 11.8551 0.1716C12.0516 0.0591523 12.2742 0 12.5006 0C12.7271 0 12.9496 0.0591523 13.1462 0.1716C13.3427 0.284047 13.5065 0.44589 13.6213 0.6411L16.8065 7.09649L23.9307 8.13155C24.1613 8.16526 24.3779 8.26277 24.5561 8.41308C24.7342 8.56339 24.8668 8.76051 24.9388 8.98219C25.0108 9.20386 25.0195 9.44126 24.9637 9.66757C24.9079 9.89388 24.79 10.1001 24.6232 10.2629L19.4679 15.2882L20.6855 22.3837C20.7162 22.563 20.7075 22.7469 20.6598 22.9225C20.6121 23.0982 20.5266 23.2613 20.4094 23.4004C20.2921 23.5396 20.1459 23.6515 19.9809 23.7283C19.8159 23.805 19.6349 23.8449 19.4529 23.845Z" fill="#0E21A0"/>
</svg>
