<svg width="30" height="30" viewBox="0 0 30 30" fill="none" xmlns="http://www.w3.org/2000/svg">
<path d="M3 30C2.175 30 1.4685 29.706 0.880502 29.118C0.292502 28.53 -0.000997453 27.824 2.54669e-06 27V6H3V27H24V30H3ZM9 24C8.175 24 7.4685 23.706 6.8805 23.118C6.2925 22.53 5.999 21.824 6 21V3C6 2.175 6.294 1.4685 6.882 0.880502C7.47 0.292502 8.176 -0.000997453 9 2.54669e-06H27C27.825 2.54669e-06 28.5315 0.294003 29.1195 0.882002C29.7075 1.47 30.001 2.176 30 3V21C30 21.825 29.706 22.5315 29.118 23.1195C28.53 23.7075 27.824 24.001 27 24H9ZM16.5 13.5L20.25 11.25L24 13.5V3H16.5V13.5Z" fill="#0E21A0"/>
</svg>
