<svg width="30" height="17" viewBox="0 0 30 17" fill="none" xmlns="http://www.w3.org/2000/svg">
<path d="M27 7.5C26.6394 7.50258 26.2822 7.57016 25.9455 7.6995L22.3485 4.755C22.437 4.434 22.5 4.101 22.5 3.75C22.5 1.671 20.829 0 18.75 0C16.671 0 15 1.671 15 3.75C15 4.344 15.15 4.8975 15.393 5.3955L11.0295 10.5525C10.8548 10.5198 10.6777 10.5022 10.5 10.5C10.2315 10.5 9.978 10.545 9.732 10.611L5.8875 6.7665C5.955 6.522 6 6.2685 6 6C6 4.338 4.662 3 3 3C1.338 3 0 4.338 0 6C0 7.662 1.338 9 3 9C3.2685 9 3.522 8.955 3.768 8.889L7.6125 12.7335C7.5404 12.9827 7.50255 13.2406 7.5 13.5C7.5 15.162 8.838 16.5 10.5 16.5C12.162 16.5 13.5 15.162 13.5 13.5C13.5 13.1445 13.428 12.81 13.3155 12.4935L17.685 7.3305C18.0255 7.4295 18.378 7.5 18.75 7.5C19.342 7.49673 19.9246 7.35222 20.4495 7.0785L24.048 10.023C24.0198 10.1805 24.0037 10.34 24 10.5C24 12.162 25.338 13.5 27 13.5C28.662 13.5 30 12.162 30 10.5C30 8.838 28.662 7.5 27 7.5Z" fill="#EFF6FF"/>
</svg>
