<svg width="25" height="25" viewBox="0 0 25 25" fill="none" xmlns="http://www.w3.org/2000/svg">
<path d="M1.0411e-06 24C1.06428e-06 23.7348 0.109747 23.4804 0.305097 23.2929C0.500448 23.1054 0.765401 23 1.04167 23L23.9583 23C24.2346 23 24.4996 23.1054 24.6949 23.2929C24.8903 23.4804 25 23.7348 25 24C25 24.2652 24.8903 24.5196 24.6949 24.7071C24.4996 24.8946 24.2346 25 23.9583 25L1.04167 25C0.7654 25 0.500448 24.8946 0.305097 24.7071C0.109747 24.5196 1.01791e-06 24.2652 1.0411e-06 24ZM4.16667 21L9.375 21C9.92754 21 10.4574 20.7893 10.8481 20.4142C11.2388 20.0391 11.4583 19.5304 11.4583 19L11.4583 7C11.4583 6.46957 11.2388 5.96086 10.8481 5.58579C10.4574 5.21071 9.92754 5 9.375 5L4.16667 5C3.61413 5 3.08423 5.21071 2.69353 5.58578C2.30283 5.96086 2.08334 6.46956 2.08334 7L2.08333 19C2.08333 19.5304 2.30283 20.0391 2.69353 20.4142C3.08423 20.7893 3.61413 21 4.16667 21ZM15.625 21L20.8333 21C21.3859 21 21.9158 20.7893 22.3065 20.4142C22.6972 20.0391 22.9167 19.5304 22.9167 19L22.9167 2C22.9167 1.46957 22.6972 0.960859 22.3065 0.585787C21.9158 0.210714 21.3859 -3.15957e-07 20.8333 -3.64262e-07L15.625 -8.19589e-07C15.0725 -8.67893e-07 14.5426 0.210713 14.1519 0.585786C13.7612 0.960859 13.5417 1.46957 13.5417 2L13.5417 19C13.5417 19.5304 13.7612 20.0391 14.1519 20.4142C14.5426 20.7893 15.0725 21 15.625 21Z" fill="#0E21A0"/>
</svg>
