<svg width="29" height="29" viewBox="0 0 29 29" fill="none" xmlns="http://www.w3.org/2000/svg">
<path d="M2 27H27Z" fill="#0E21A0"/>
<path d="M2 15.75L7 17V23.25H2V15.75ZM12 14.5L17 12V23.25H12V14.5ZM22 9.5L27 7V23.25H22V9.5Z" fill="#0E21A0"/>
<path d="M2 10.75L7 12L27 2H20.75" fill="#0E21A0"/>
<path d="M2 27H27M2 10.75L7 12L27 2H20.75M2 15.75L7 17V23.25H2V15.75ZM12 14.5L17 12V23.25H12V14.5ZM22 9.5L27 7V23.25H22V9.5Z" stroke="#0E21A0" stroke-width="2.5" stroke-linecap="round" stroke-linejoin="round"/>
</svg>
