<svg width="36" height="20" viewBox="0 0 36 20" fill="none" xmlns="http://www.w3.org/2000/svg">
<path d="M19.7608 0.71416L14.5556 7.64859L18.5257 12.9421C19.108 13.7184 18.9492 14.8301 18.1728 15.4123C17.988 15.5527 17.7771 15.655 17.5524 15.7133C17.3277 15.7716 17.0937 15.7847 16.8639 15.7519C16.6342 15.7191 16.4132 15.641 16.2138 15.5221C16.0145 15.4032 15.8407 15.246 15.7025 15.0594C13.8498 12.5892 11.6266 9.64246 10.2326 7.75446C9.52681 6.81928 8.11522 6.81928 7.40943 7.75446L0.351484 17.1592C-0.513115 18.3414 0.316194 20 1.76307 20H33.5238C34.9707 20 35.8 18.3414 34.9354 17.1768L22.584 0.71416C22.4212 0.492762 22.2086 0.312762 21.9634 0.188701C21.7182 0.0646413 21.4472 0 21.1724 0C20.8976 0 20.6267 0.0646413 20.3814 0.188701C20.1362 0.312762 19.9236 0.492762 19.7608 0.71416Z" fill="#0E21A0"/>
</svg>
